<?xml version="1.0" encoding="UTF-8"?>
<!DOCTYPE svg PUBLIC "-//W3C//DTD SVG 1.1//EN" "http://www.w3.org/Graphics/SVG/1.1/DTD/svg11.dtd">
<svg xmlns="http://www.w3.org/2000/svg" version="1.1" width="512px" height="512px" style="shape-rendering:geometricPrecision; text-rendering:geometricPrecision; image-rendering:optimizeQuality; fill-rule:evenodd; clip-rule:evenodd" xmlns:xlink="http://www.w3.org/1999/xlink">
<g><path style="opacity:0.021" fill="#43443f" d="M -0.5,-0.5 C 0.166667,-0.5 0.833333,-0.5 1.5,-0.5C 1.16667,0.5 0.5,1.16667 -0.5,1.5C -0.5,0.833333 -0.5,0.166667 -0.5,-0.5 Z"/></g>
<g><path style="opacity:0.022" fill="#43443f" d="M 16.5,-0.5 C 18.1667,-0.5 19.8333,-0.5 21.5,-0.5C 14.5,7.16667 7.16667,14.5 -0.5,21.5C -0.5,19.8333 -0.5,18.1667 -0.5,16.5C 5.5,11.1667 11.1667,5.5 16.5,-0.5 Z"/></g>
<g><path style="opacity:0.022" fill="#43443f" d="M 36.5,-0.5 C 38.1667,-0.5 39.8333,-0.5 41.5,-0.5C 27.8333,13.8333 13.8333,27.8333 -0.5,41.5C -0.5,39.8333 -0.5,38.1667 -0.5,36.5C 12.1667,24.5 24.5,12.1667 36.5,-0.5 Z"/></g>
<g><path style="opacity:0.022" fill="#43443f" d="M 56.5,-0.5 C 58.1667,-0.5 59.8333,-0.5 61.5,-0.5C 41.1667,20.5 20.5,41.1667 -0.5,61.5C -0.5,59.8333 -0.5,58.1667 -0.5,56.5C 18.8333,37.8333 37.8333,18.8333 56.5,-0.5 Z"/></g>
<g><path style="opacity:0.022" fill="#43443f" d="M 76.5,-0.5 C 78.1667,-0.5 79.8333,-0.5 81.5,-0.5C 54.5,27.1667 27.1667,54.5 -0.5,81.5C -0.5,79.8333 -0.5,78.1667 -0.5,76.5C 25.5,51.1667 51.1667,25.5 76.5,-0.5 Z"/></g>
<g><path style="opacity:0.022" fill="#43443f" d="M 96.5,-0.5 C 98.1667,-0.5 99.8333,-0.5 101.5,-0.5C 67.8333,33.8333 33.8333,67.8333 -0.5,101.5C -0.5,99.8333 -0.5,98.1667 -0.5,96.5C 32.1667,64.5 64.5,32.1667 96.5,-0.5 Z"/></g>
<g><path style="opacity:0.022" fill="#43443f" d="M 116.5,-0.5 C 118.167,-0.5 119.833,-0.5 121.5,-0.5C 81.1667,40.5 40.5,81.1667 -0.5,121.5C -0.5,119.833 -0.5,118.167 -0.5,116.5C 38.8333,77.8333 77.8333,38.8333 116.5,-0.5 Z"/></g>
<g><path style="opacity:0.022" fill="#43443f" d="M 136.5,-0.5 C 138.167,-0.5 139.833,-0.5 141.5,-0.5C 94.5,47.1667 47.1667,94.5 -0.5,141.5C -0.5,139.833 -0.5,138.167 -0.5,136.5C 45.5,91.1667 91.1667,45.5 136.5,-0.5 Z"/></g>
<g><path style="opacity:0.022" fill="#43443f" d="M 156.5,-0.5 C 158.167,-0.5 159.833,-0.5 161.5,-0.5C 107.833,53.8333 53.8333,107.833 -0.5,161.5C -0.5,159.833 -0.5,158.167 -0.5,156.5C 52.1667,104.5 104.5,52.1667 156.5,-0.5 Z"/></g>
<g><path style="opacity:0.022" fill="#43443f" d="M 176.5,-0.5 C 178.167,-0.5 179.833,-0.5 181.5,-0.5C 121.167,60.5 60.5,121.167 -0.5,181.5C -0.5,179.833 -0.5,178.167 -0.5,176.5C 58.8333,117.833 117.833,58.8333 176.5,-0.5 Z"/></g>
<g><path style="opacity:0.022" fill="#43443f" d="M 196.5,-0.5 C 198.167,-0.5 199.833,-0.5 201.5,-0.5C 134.5,67.1667 67.1667,134.5 -0.5,201.5C -0.5,199.833 -0.5,198.167 -0.5,196.5C 65.5,131.167 131.167,65.5 196.5,-0.5 Z"/></g>
<g><path style="opacity:0.022" fill="#43443f" d="M 216.5,-0.5 C 218.167,-0.5 219.833,-0.5 221.5,-0.5C 147.833,73.8333 73.8333,147.833 -0.5,221.5C -0.5,219.833 -0.5,218.167 -0.5,216.5C 72.1667,144.5 144.5,72.1667 216.5,-0.5 Z"/></g>
<g><path style="opacity:0.022" fill="#43443f" d="M 236.5,-0.5 C 238.167,-0.5 239.833,-0.5 241.5,-0.5C 161.167,80.5 80.5,161.167 -0.5,241.5C -0.5,239.833 -0.5,238.167 -0.5,236.5C 78.8333,157.833 157.833,78.8333 236.5,-0.5 Z"/></g>
<g><path style="opacity:0.022" fill="#43443f" d="M 256.5,-0.5 C 258.167,-0.5 259.833,-0.5 261.5,-0.5C 174.5,87.1667 87.1667,174.5 -0.5,261.5C -0.5,259.833 -0.5,258.167 -0.5,256.5C 85.5,171.167 171.167,85.5 256.5,-0.5 Z"/></g>
<g><path style="opacity:0.022" fill="#43443f" d="M 276.5,-0.5 C 278.167,-0.5 279.833,-0.5 281.5,-0.5C 187.833,93.8333 93.8333,187.833 -0.5,281.5C -0.5,279.833 -0.5,278.167 -0.5,276.5C 92.1667,184.5 184.5,92.1667 276.5,-0.5 Z"/></g>
<g><path style="opacity:0.022" fill="#43443f" d="M 296.5,-0.5 C 298.167,-0.5 299.833,-0.5 301.5,-0.5C 201.167,100.5 100.5,201.167 -0.5,301.5C -0.5,299.833 -0.5,298.167 -0.5,296.5C 98.8333,197.833 197.833,98.8333 296.5,-0.5 Z"/></g>
<g><path style="opacity:0.022" fill="#43443f" d="M 316.5,-0.5 C 318.167,-0.5 319.833,-0.5 321.5,-0.5C 292.833,28.5 264.167,57.5 235.5,86.5C 233.299,87.5664 230.965,88.233 228.5,88.5C 257.833,58.8333 287.167,29.1667 316.5,-0.5 Z"/></g>
<g><path style="opacity:0.022" fill="#43443f" d="M 336.5,-0.5 C 338.167,-0.5 339.833,-0.5 341.5,-0.5C 313.5,27.8333 285.5,56.1667 257.5,84.5C 255.833,84.5 254.167,84.5 252.5,84.5C 280.5,56.1667 308.5,27.8333 336.5,-0.5 Z"/></g>
<g><path style="opacity:0.022" fill="#444440" d="M 356.5,-0.5 C 358.167,-0.5 359.833,-0.5 361.5,-0.5C 332.833,28.5 304.167,57.5 275.5,86.5C 273.901,86.7678 272.568,86.4345 271.5,85.5C 299.833,56.8333 328.167,28.1667 356.5,-0.5 Z"/></g>
<g><path style="opacity:0.022" fill="#43443f" d="M 376.5,-0.5 C 378.167,-0.5 379.833,-0.5 381.5,-0.5C 351.167,30.1667 320.833,60.8333 290.5,91.5C 289.041,91.5674 287.708,91.2341 286.5,90.5C 316.5,60.1667 346.5,29.8333 376.5,-0.5 Z"/></g>
<g><path style="opacity:0.022" fill="#444440" d="M 396.5,-0.5 C 398.167,-0.5 399.833,-0.5 401.5,-0.5C 368.5,32.8333 335.5,66.1667 302.5,99.5C 301.167,98.8333 300.167,97.8333 299.5,96.5C 332.167,64.5 364.5,32.1667 396.5,-0.5 Z"/></g>
<g><path style="opacity:0.022" fill="#43443f" d="M 416.5,-0.5 C 418.167,-0.5 419.833,-0.5 421.5,-0.5C 385.5,35.8333 349.5,72.1667 313.5,108.5C 312.167,107.833 311.167,106.833 310.5,105.5C 346.167,70.5 381.5,35.1667 416.5,-0.5 Z"/></g>
<g><path style="opacity:0.022" fill="#44443f" d="M 436.5,-0.5 C 438.167,-0.5 439.833,-0.5 441.5,-0.5C 401.833,39.5 362.167,79.5 322.5,119.5C 321.599,118.71 320.932,117.71 320.5,116.5C 359.167,77.5 397.833,38.5 436.5,-0.5 Z"/></g>
<g><path style="opacity:0.022" fill="#43443f" d="M 456.5,-0.5 C 458.167,-0.5 459.833,-0.5 461.5,-0.5C 417.833,43.8333 373.833,87.8333 329.5,131.5C 328.599,130.71 327.932,129.71 327.5,128.5C 370.833,85.8333 413.833,42.8333 456.5,-0.5 Z"/></g>
<g><path style="opacity:0.022" fill="#43443f" d="M 476.5,-0.5 C 478.167,-0.5 479.833,-0.5 481.5,-0.5C 432.833,48.8333 383.833,97.8333 334.5,146.5C 333.766,145.292 333.433,143.959 333.5,142.5C 381.5,95.1667 429.167,47.5 476.5,-0.5 Z"/></g>
<g><path style="opacity:0.022" fill="#43443f" d="M 496.5,-0.5 C 498.167,-0.5 499.833,-0.5 501.5,-0.5C 446.833,54.8333 391.833,109.833 336.5,164.5C 336.5,162.833 336.5,161.167 336.5,159.5C 390.167,106.5 443.5,53.1667 496.5,-0.5 Z"/></g>
<g><path style="opacity:0.022" fill="#43443f" d="M 511.5,5.5 C 511.5,7.16667 511.5,8.83333 511.5,10.5C 453.167,68.5 394.833,126.5 336.5,184.5C 336.5,182.833 336.5,181.167 336.5,179.5C 394.833,121.5 453.167,63.5 511.5,5.5 Z"/></g>
<g><path style="opacity:0.022" fill="#43443f" d="M 511.5,25.5 C 511.5,27.1667 511.5,28.8333 511.5,30.5C 453.167,88.5 394.833,146.5 336.5,204.5C 336.5,202.833 336.5,201.167 336.5,199.5C 394.833,141.5 453.167,83.5 511.5,25.5 Z"/></g>
<g><path style="opacity:0.022" fill="#43443f" d="M 511.5,45.5 C 511.5,47.1667 511.5,48.8333 511.5,50.5C 459.167,102.167 407.167,154.167 355.5,206.5C 353.833,206.5 352.167,206.5 350.5,206.5C 403.833,152.5 457.5,98.8333 511.5,45.5 Z"/></g>
<g><path style="opacity:0.022" fill="#43443f" d="M 511.5,65.5 C 511.5,67.1667 511.5,68.8333 511.5,70.5C 464.833,116.5 418.5,162.833 372.5,209.5C 370.847,209.34 369.514,208.674 368.5,207.5C 416.167,160.167 463.833,112.833 511.5,65.5 Z"/></g>
<g><path style="opacity:0.022" fill="#43443f" d="M 511.5,85.5 C 511.5,87.1667 511.5,88.8333 511.5,90.5C 467.833,133.5 424.5,176.833 381.5,220.5C 380.326,219.486 379.66,218.153 379.5,216.5C 423.5,172.833 467.5,129.167 511.5,85.5 Z"/></g>
<g><path style="opacity:0.022" fill="#43443f" d="M 511.5,105.5 C 511.5,107.167 511.5,108.833 511.5,110.5C 468.5,153.167 425.5,195.833 382.5,238.5C 382.5,236.833 382.5,235.167 382.5,233.5C 425.5,190.833 468.5,148.167 511.5,105.5 Z"/></g>
<g><path style="opacity:0.022" fill="#444440" d="M 249.5,111.5 C 233.833,127.833 217.833,143.833 201.5,159.5C 201.833,157.5 202.167,155.5 202.5,153.5C 203.167,153.5 203.5,153.167 203.5,152.5C 216.833,139.833 229.833,126.833 242.5,113.5C 243.167,113.5 243.5,113.167 243.5,112.5C 244.167,112.5 244.833,112.5 245.5,112.5C 246.708,111.766 248.041,111.433 249.5,111.5 Z"/></g>
<g><path style="opacity:0.022" fill="#43443f" d="M 264.5,112.5 C 266.099,112.232 267.432,112.566 268.5,113.5C 246.167,135.5 223.833,157.5 201.5,179.5C 201.5,177.833 201.5,176.167 201.5,174.5C 222.5,153.833 243.5,133.167 264.5,112.5 Z"/></g>
<g><path style="opacity:0.022" fill="#43443f" d="M 279.5,117.5 C 280.609,117.557 281.609,117.89 282.5,118.5C 255.833,145.833 228.833,172.833 201.5,199.5C 201.5,197.833 201.5,196.167 201.5,194.5C 227.5,168.833 253.5,143.167 279.5,117.5 Z"/></g>
<g><path style="opacity:0.993" fill="#47af2b" d="M 270.5,85.5 C 270.833,85.5 271.167,85.5 271.5,85.5C 272.568,86.4345 273.901,86.7678 275.5,86.5C 279.167,87.8333 282.833,89.1667 286.5,90.5C 287.708,91.2341 289.041,91.5674 290.5,91.5C 293.24,93.5595 296.24,95.2262 299.5,96.5C 300.167,97.8333 301.167,98.8333 302.5,99.5C 305.45,101.115 308.116,103.115 310.5,105.5C 311.167,106.833 312.167,107.833 313.5,108.5C 315.862,111.192 318.196,113.859 320.5,116.5C 320.932,117.71 321.599,118.71 322.5,119.5C 324.42,122.339 326.087,125.339 327.5,128.5C 327.932,129.71 328.599,130.71 329.5,131.5C 330.835,135.172 332.168,138.838 333.5,142.5C 333.433,143.959 333.766,145.292 334.5,146.5C 335.275,150.814 335.941,155.147 336.5,159.5C 336.5,161.167 336.5,162.833 336.5,164.5C 336.5,169.5 336.5,174.5 336.5,179.5C 336.5,181.167 336.5,182.833 336.5,184.5C 336.5,189.5 336.5,194.5 336.5,199.5C 336.5,201.167 336.5,202.833 336.5,204.5C 340.715,206.436 345.381,207.103 350.5,206.5C 352.167,206.5 353.833,206.5 355.5,206.5C 359.869,206.467 364.202,206.8 368.5,207.5C 369.514,208.674 370.847,209.34 372.5,209.5C 374.99,211.412 376.99,213.745 378.5,216.5C 342.418,254.083 305.751,291.25 268.5,328C 267.906,328.464 267.239,328.631 266.5,328.5C 266.5,324.167 266.5,319.833 266.5,315.5C 266.5,313.833 266.5,312.167 266.5,310.5C 266.335,307.482 266.502,304.482 267,301.5C 272.457,297.595 275.623,292.262 276.5,285.5C 276.784,283.585 276.451,281.919 275.5,280.5C 274.873,276.58 273.207,273.247 270.5,270.5C 270.167,269.5 269.5,268.833 268.5,268.5C 265.26,266.049 261.593,264.382 257.5,263.5C 256.167,263.5 254.833,263.5 253.5,263.5C 272.167,244.5 290.833,225.5 309.5,206.5C 309.5,201.833 309.5,197.167 309.5,192.5C 309.5,190.833 309.5,189.167 309.5,187.5C 309.5,182.5 309.5,177.5 309.5,172.5C 309.5,170.833 309.5,169.167 309.5,167.5C 309.563,162.797 309.229,158.13 308.5,153.5C 307.766,152.292 307.433,150.959 307.5,149.5C 306.203,145.917 304.537,142.584 302.5,139.5C 302.573,137.973 301.906,136.973 300.5,136.5C 298.889,132.949 296.556,129.949 293.5,127.5C 293.167,126.5 292.5,125.833 291.5,125.5C 288.81,122.815 285.81,120.482 282.5,118.5C 281.609,117.89 280.609,117.557 279.5,117.5C 276.34,115 272.673,113.667 268.5,113.5C 267.432,112.566 266.099,112.232 264.5,112.5C 259.695,111.513 254.695,111.179 249.5,111.5C 248.041,111.433 246.708,111.766 245.5,112.5C 253.444,103.22 261.777,94.2196 270.5,85.5 Z"/></g>
<g><path style="opacity:0.022" fill="#43443f" d="M 291.5,125.5 C 292.5,125.833 293.167,126.5 293.5,127.5C 267.5,153.833 241.5,180.167 215.5,206.5C 213.833,206.5 212.167,206.5 210.5,206.5C 237.167,179.167 264.167,152.167 291.5,125.5 Z"/></g>
<g><path style="opacity:0.022" fill="#43443f" d="M 511.5,125.5 C 511.5,127.167 511.5,128.833 511.5,130.5C 468.5,173.167 425.5,215.833 382.5,258.5C 382.5,256.833 382.5,255.167 382.5,253.5C 425.5,210.833 468.5,168.167 511.5,125.5 Z"/></g>
<g><path style="opacity:0.987" fill="#47af2c" d="M 252.5,84.5 C 254.167,84.5 255.833,84.5 257.5,84.5C 261.857,84.5865 266.19,84.9198 270.5,85.5C 261.777,94.2196 253.444,103.22 245.5,112.5C 244.833,112.5 244.167,112.5 243.5,112.5C 242.833,112.5 242.5,112.833 242.5,113.5C 221.833,118.833 208.833,131.833 203.5,152.5C 202.833,152.5 202.5,152.833 202.5,153.5C 202.167,155.5 201.833,157.5 201.5,159.5C 201.5,164.5 201.5,169.5 201.5,174.5C 201.5,176.167 201.5,177.833 201.5,179.5C 201.5,184.5 201.5,189.5 201.5,194.5C 201.5,196.167 201.5,197.833 201.5,199.5C 201.5,201.833 201.5,204.167 201.5,206.5C 204.5,206.5 207.5,206.5 210.5,206.5C 212.167,206.5 213.833,206.5 215.5,206.5C 220.167,206.5 224.833,206.5 229.5,206.5C 196.451,240.55 162.784,273.883 128.5,306.5C 128.5,302.167 128.5,297.833 128.5,293.5C 128.5,291.833 128.5,290.167 128.5,288.5C 128.5,283.5 128.5,278.5 128.5,273.5C 128.5,271.833 128.5,270.167 128.5,268.5C 128.5,263.5 128.5,258.5 128.5,253.5C 128.5,251.833 128.5,250.167 128.5,248.5C 128.5,243.5 128.5,238.5 128.5,233.5C 128.5,231.833 128.5,230.167 128.5,228.5C 129.493,214.841 136.826,207.507 150.5,206.5C 152.167,206.5 153.833,206.5 155.5,206.5C 160.5,206.5 165.5,206.5 170.5,206.5C 171.833,206.5 173.167,206.5 174.5,206.5C 174.5,205.167 174.5,203.833 174.5,202.5C 174.5,197.5 174.5,192.5 174.5,187.5C 174.5,185.833 174.5,184.167 174.5,182.5C 174.5,177.5 174.5,172.5 174.5,167.5C 174.5,165.833 174.5,164.167 174.5,162.5C 174.84,156.792 175.507,151.125 176.5,145.5C 177.612,143.401 178.279,141.067 178.5,138.5C 188.167,114.833 204.833,98.1667 228.5,88.5C 230.965,88.233 233.299,87.5664 235.5,86.5C 241.116,85.4598 246.783,84.7931 252.5,84.5 Z"/></g>
<g><path style="opacity:0.022" fill="#43443f" d="M 300.5,136.5 C 301.906,136.973 302.573,137.973 302.5,139.5C 279.833,161.5 257.5,183.833 235.5,206.5C 233.833,206.5 232.167,206.5 230.5,206.5C 253.5,182.833 276.833,159.5 300.5,136.5 Z"/></g>
<g><path style="opacity:0.022" fill="#44443f" d="M 178.5,138.5 C 178.279,141.067 177.612,143.401 176.5,145.5C 117.5,204.167 58.5,262.833 -0.5,321.5C -0.5,319.833 -0.5,318.167 -0.5,316.5C 59.1667,257.167 118.833,197.833 178.5,138.5 Z"/></g>
<g><path style="opacity:0.022" fill="#43443f" d="M 511.5,145.5 C 511.5,147.167 511.5,148.833 511.5,150.5C 468.5,193.167 425.5,235.833 382.5,278.5C 382.5,276.833 382.5,275.167 382.5,273.5C 425.5,230.833 468.5,188.167 511.5,145.5 Z"/></g>
<g><path style="opacity:0.022" fill="#43443f" d="M 307.5,149.5 C 307.433,150.959 307.766,152.292 308.5,153.5C 290.5,170.833 272.833,188.5 255.5,206.5C 255.167,206.5 254.833,206.5 254.5,206.5C 253.167,206.5 251.833,206.5 250.5,206.5C 269.167,187.167 288.167,168.167 307.5,149.5 Z"/></g>
<g><path style="opacity:0.022" fill="#43443f" d="M 174.5,162.5 C 174.5,164.167 174.5,165.833 174.5,167.5C 116.167,225.5 57.8333,283.5 -0.5,341.5C -0.5,339.833 -0.5,338.167 -0.5,336.5C 57.8333,278.5 116.167,220.5 174.5,162.5 Z"/></g>
<g><path style="opacity:0.022" fill="#43443f" d="M 511.5,165.5 C 511.5,167.167 511.5,168.833 511.5,170.5C 468.5,213.167 425.5,255.833 382.5,298.5C 382.5,296.833 382.5,295.167 382.5,293.5C 425.5,250.833 468.5,208.167 511.5,165.5 Z"/></g>
<g><path style="opacity:0.022" fill="#43443f" d="M 309.5,167.5 C 309.5,169.167 309.5,170.833 309.5,172.5C 297.833,183.5 286.5,194.833 275.5,206.5C 273.833,206.5 272.167,206.5 270.5,206.5C 283.167,193.167 296.167,180.167 309.5,167.5 Z"/></g>
<g><path style="opacity:0.022" fill="#43443f" d="M 174.5,182.5 C 174.5,184.167 174.5,185.833 174.5,187.5C 167.833,193.5 161.5,199.833 155.5,206.5C 153.833,206.5 152.167,206.5 150.5,206.5C 158.167,198.167 166.167,190.167 174.5,182.5 Z"/></g>
<g><path style="opacity:0.022" fill="#43443f" d="M 511.5,185.5 C 511.5,187.167 511.5,188.833 511.5,190.5C 468.5,233.167 425.5,275.833 382.5,318.5C 382.5,316.833 382.5,315.167 382.5,313.5C 425.5,270.833 468.5,228.167 511.5,185.5 Z"/></g>
<g><path style="opacity:0.022" fill="#43443f" d="M 309.5,187.5 C 309.5,189.167 309.5,190.833 309.5,192.5C 304.5,196.833 299.833,201.5 295.5,206.5C 293.833,206.5 292.167,206.5 290.5,206.5C 296.5,199.833 302.833,193.5 309.5,187.5 Z"/></g>
<g><path style="opacity:0.022" fill="#43443f" d="M 174.5,202.5 C 174.5,203.833 174.5,205.167 174.5,206.5C 173.167,206.5 171.833,206.5 170.5,206.5C 171.5,204.833 172.833,203.5 174.5,202.5 Z"/></g>
<g><path style="opacity:0.022" fill="#43443f" d="M 511.5,205.5 C 511.5,207.167 511.5,208.833 511.5,210.5C 468.5,253.167 425.5,295.833 382.5,338.5C 382.5,336.833 382.5,335.167 382.5,333.5C 425.5,290.833 468.5,248.167 511.5,205.5 Z"/></g>
<g><path style="opacity:0.994" fill="#47ae2c" d="M 229.5,206.5 C 229.833,206.5 230.167,206.5 230.5,206.5C 232.167,206.5 233.833,206.5 235.5,206.5C 240.5,206.5 245.5,206.5 250.5,206.5C 251.833,206.5 253.167,206.5 254.5,206.5C 212.473,248.86 170.473,291.194 128.5,333.5C 128.5,331.833 128.5,330.167 128.5,328.5C 128.5,323.5 128.5,318.5 128.5,313.5C 128.5,311.833 128.5,310.167 128.5,308.5C 128.5,307.833 128.5,307.167 128.5,306.5C 162.784,273.883 196.451,240.55 229.5,206.5 Z"/></g>
<g><path style="opacity:0.996" fill="#47af2b" d="M 254.5,206.5 C 254.833,206.5 255.167,206.5 255.5,206.5C 260.5,206.5 265.5,206.5 270.5,206.5C 272.167,206.5 273.833,206.5 275.5,206.5C 280.5,206.5 285.5,206.5 290.5,206.5C 292.167,206.5 293.833,206.5 295.5,206.5C 300.167,206.5 304.833,206.5 309.5,206.5C 290.833,225.5 272.167,244.5 253.5,263.5C 253.167,263.5 252.833,263.5 252.5,263.5C 251.833,263.5 251.5,263.833 251.5,264.5C 242.5,266.167 237.167,271.5 235.5,280.5C 235.167,281.167 234.833,281.833 234.5,282.5C 199.701,316.799 165.035,351.299 130.5,386C 129.906,386.464 129.239,386.631 128.5,386.5C 128.5,382.167 128.5,377.833 128.5,373.5C 128.5,371.833 128.5,370.167 128.5,368.5C 128.5,363.5 128.5,358.5 128.5,353.5C 128.5,351.833 128.5,350.167 128.5,348.5C 128.5,343.5 128.5,338.5 128.5,333.5C 170.473,291.194 212.473,248.86 254.5,206.5 Z"/></g>
<g><path style="opacity:0.994" fill="#47ae2c" d="M 378.5,216.5 C 378.833,216.5 379.167,216.5 379.5,216.5C 379.66,218.153 380.326,219.486 381.5,220.5C 382.295,224.785 382.628,229.119 382.5,233.5C 382.5,235.167 382.5,236.833 382.5,238.5C 382.5,239.167 382.5,239.833 382.5,240.5C 381.761,240.369 381.094,240.536 380.5,241C 342.632,279.035 304.632,316.868 266.5,354.5C 266.5,353.167 266.5,351.833 266.5,350.5C 266.5,345.5 266.5,340.5 266.5,335.5C 266.5,333.833 266.5,332.167 266.5,330.5C 266.5,329.833 266.5,329.167 266.5,328.5C 267.239,328.631 267.906,328.464 268.5,328C 305.751,291.25 342.418,254.083 378.5,216.5 Z"/></g>
<g><path style="opacity:0.022" fill="#43443f" d="M 511.5,225.5 C 511.5,227.167 511.5,228.833 511.5,230.5C 468.5,273.167 425.5,315.833 382.5,358.5C 382.5,356.833 382.5,355.167 382.5,353.5C 425.5,310.833 468.5,268.167 511.5,225.5 Z"/></g>
<g><path style="opacity:0.022" fill="#43443f" d="M 128.5,228.5 C 128.5,230.167 128.5,231.833 128.5,233.5C 85.5,276.167 42.5,318.833 -0.5,361.5C -0.5,359.833 -0.5,358.167 -0.5,356.5C 42.5,313.833 85.5,271.167 128.5,228.5 Z"/></g>
<g><path style="opacity:0.997" fill="#47af2b" d="M 382.5,240.5 C 382.5,244.833 382.5,249.167 382.5,253.5C 382.5,255.167 382.5,256.833 382.5,258.5C 382.5,259.167 382.5,259.833 382.5,260.5C 326.917,314.583 271.75,369.249 217,424.5C 216.536,425.094 216.369,425.761 216.5,426.5C 215.833,426.5 215.167,426.5 214.5,426.5C 212.833,426.5 211.167,426.5 209.5,426.5C 204.5,426.5 199.5,426.5 194.5,426.5C 192.833,426.5 191.167,426.5 189.5,426.5C 185.167,426.5 180.833,426.5 176.5,426.5C 198.08,403.418 220.247,380.751 243,358.5C 243.099,360.653 243.933,362.319 245.5,363.5C 246.5,365.167 247.833,366.5 249.5,367.5C 250.29,368.401 251.29,369.068 252.5,369.5C 262.147,369.853 266.814,365.186 266.5,355.5C 266.5,355.167 266.5,354.833 266.5,354.5C 304.632,316.868 342.632,279.035 380.5,241C 381.094,240.536 381.761,240.369 382.5,240.5 Z"/></g>
<g><path style="opacity:0.022" fill="#43443f" d="M 511.5,245.5 C 511.5,247.167 511.5,248.833 511.5,250.5C 468.5,293.167 425.5,335.833 382.5,378.5C 382.5,376.833 382.5,375.167 382.5,373.5C 425.5,330.833 468.5,288.167 511.5,245.5 Z"/></g>
<g><path style="opacity:0.022" fill="#43443f" d="M 128.5,248.5 C 128.5,250.167 128.5,251.833 128.5,253.5C 85.5,296.167 42.5,338.833 -0.5,381.5C -0.5,379.833 -0.5,378.167 -0.5,376.5C 42.5,333.833 85.5,291.167 128.5,248.5 Z"/></g>
<g><path style="opacity:0.022" fill="#43443f" d="M 252.5,263.5 C 252.833,263.5 253.167,263.5 253.5,263.5C 254.833,263.5 256.167,263.5 257.5,263.5C 250.167,271.5 242.5,279.167 234.5,286.5C 234.5,285.167 234.5,283.833 234.5,282.5C 234.833,281.833 235.167,281.167 235.5,280.5C 241.167,275.5 246.5,270.167 251.5,264.5C 252.167,264.5 252.5,264.167 252.5,263.5 Z"/></g>
<g><path style="opacity:0.022" fill="#43443f" d="M 511.5,265.5 C 511.5,267.167 511.5,268.833 511.5,270.5C 468.5,313.167 425.5,355.833 382.5,398.5C 382.5,396.833 382.5,395.167 382.5,393.5C 425.5,350.833 468.5,308.167 511.5,265.5 Z"/></g>
<g><path style="opacity:0.022" fill="#43443f" d="M 128.5,268.5 C 128.5,270.167 128.5,271.833 128.5,273.5C 85.5,316.167 42.5,358.833 -0.5,401.5C -0.5,399.833 -0.5,398.167 -0.5,396.5C 42.5,353.833 85.5,311.167 128.5,268.5 Z"/></g>
<g><path style="opacity:0.022" fill="#43443f" d="M 268.5,268.5 C 269.5,268.833 270.167,269.5 270.5,270.5C 261.167,280.5 251.5,290.167 241.5,299.5C 240.094,299.027 239.427,298.027 239.5,296.5C 249.167,287.167 258.833,277.833 268.5,268.5 Z"/></g>
<g><path style="opacity:1" fill="#47af2b" d="M 382.5,260.5 C 382.5,264.833 382.5,269.167 382.5,273.5C 382.5,275.167 382.5,276.833 382.5,278.5C 382.5,283.5 382.5,288.5 382.5,293.5C 338.5,338.167 294.167,382.5 249.5,426.5C 244.5,426.5 239.5,426.5 234.5,426.5C 232.833,426.5 231.167,426.5 229.5,426.5C 225.167,426.5 220.833,426.5 216.5,426.5C 216.369,425.761 216.536,425.094 217,424.5C 271.75,369.249 326.917,314.583 382.5,260.5 Z"/></g>
<g><path style="opacity:0.022" fill="#43443f" d="M 275.5,280.5 C 276.451,281.919 276.784,283.585 276.5,285.5C 265.833,295.833 255.167,306.167 244.5,316.5C 244.5,314.833 244.5,313.167 244.5,311.5C 255.167,301.5 265.5,291.167 275.5,280.5 Z"/></g>
<g><path style="opacity:0.022" fill="#43443f" d="M 511.5,285.5 C 511.5,287.167 511.5,288.833 511.5,290.5C 437.5,363.833 363.833,437.5 290.5,511.5C 288.833,511.5 287.167,511.5 285.5,511.5C 314.167,482.5 342.833,453.5 371.5,424.5C 372.167,424.5 372.5,424.167 372.5,423.5C 373.167,423.5 373.5,423.167 373.5,422.5C 375.5,421.167 377.167,419.5 378.5,417.5C 379.167,417.5 379.5,417.167 379.5,416.5C 380.167,416.5 380.5,416.167 380.5,415.5C 424.167,372.167 467.833,328.833 511.5,285.5 Z"/></g>
<g><path style="opacity:0.022" fill="#43443f" d="M 128.5,288.5 C 128.5,290.167 128.5,291.833 128.5,293.5C 85.5,336.167 42.5,378.833 -0.5,421.5C -0.5,419.833 -0.5,418.167 -0.5,416.5C 42.5,373.833 85.5,331.167 128.5,288.5 Z"/></g>
<g><path style="opacity:0.998" fill="#47af2c" d="M 234.5,282.5 C 234.5,283.833 234.5,285.167 234.5,286.5C 235.125,290.416 236.791,293.749 239.5,296.5C 239.427,298.027 240.094,299.027 241.5,299.5C 242.172,300.267 243.005,300.934 244,301.5C 244.498,304.817 244.665,308.15 244.5,311.5C 244.5,313.167 244.5,314.833 244.5,316.5C 244.5,321.5 244.5,326.5 244.5,331.5C 244.5,333.167 244.5,334.833 244.5,336.5C 244.5,341.5 244.5,346.5 244.5,351.5C 244.5,353.167 244.5,354.833 244.5,356.5C 244.448,358.903 244.781,361.236 245.5,363.5C 243.933,362.319 243.099,360.653 243,358.5C 220.247,380.751 198.08,403.418 176.5,426.5C 175.833,426.5 175.167,426.5 174.5,426.5C 172.833,426.5 171.167,426.5 169.5,426.5C 164.5,426.5 159.5,426.5 154.5,426.5C 152.833,426.5 151.167,426.5 149.5,426.5C 145.593,426.274 141.926,425.274 138.5,423.5C 137.71,422.599 136.71,421.932 135.5,421.5C 133.252,418.672 131.252,415.672 129.5,412.5C 129.567,411.041 129.234,409.708 128.5,408.5C 128.5,403.5 128.5,398.5 128.5,393.5C 128.5,391.833 128.5,390.167 128.5,388.5C 128.5,387.833 128.5,387.167 128.5,386.5C 129.239,386.631 129.906,386.464 130.5,386C 165.035,351.299 199.701,316.799 234.5,282.5 Z"/></g>
<g><path style="opacity:1" fill="#47ae2b" d="M 382.5,293.5 C 382.5,295.167 382.5,296.833 382.5,298.5C 382.5,303.5 382.5,308.5 382.5,313.5C 382.5,315.167 382.5,316.833 382.5,318.5C 382.5,319.167 382.5,319.833 382.5,320.5C 346.917,354.582 311.75,389.248 277,424.5C 276.536,425.094 276.369,425.761 276.5,426.5C 275.833,426.5 275.167,426.5 274.5,426.5C 272.833,426.5 271.167,426.5 269.5,426.5C 264.5,426.5 259.5,426.5 254.5,426.5C 252.833,426.5 251.167,426.5 249.5,426.5C 294.167,382.5 338.5,338.167 382.5,293.5 Z"/></g>
<g><path style="opacity:0.022" fill="#43443f" d="M 511.5,305.5 C 511.5,307.167 511.5,308.833 511.5,310.5C 444.167,377.167 377.167,444.167 310.5,511.5C 308.833,511.5 307.167,511.5 305.5,511.5C 373.833,442.5 442.5,373.833 511.5,305.5 Z"/></g>
<g><path style="opacity:0.022" fill="#43443f" d="M 128.5,308.5 C 128.5,310.167 128.5,311.833 128.5,313.5C 85.5,356.167 42.5,398.833 -0.5,441.5C -0.5,439.833 -0.5,438.167 -0.5,436.5C 42.5,393.833 85.5,351.167 128.5,308.5 Z"/></g>
<g><path style="opacity:0.022" fill="#43443f" d="M 266.5,310.5 C 266.5,312.167 266.5,313.833 266.5,315.5C 259.167,322.5 251.833,329.5 244.5,336.5C 244.5,334.833 244.5,333.167 244.5,331.5C 251.833,324.5 259.167,317.5 266.5,310.5 Z"/></g>
<g><path style="opacity:0.022" fill="#43443f" d="M 511.5,325.5 C 511.5,327.167 511.5,328.833 511.5,330.5C 450.833,390.5 390.5,450.833 330.5,511.5C 328.833,511.5 327.167,511.5 325.5,511.5C 387.167,449.167 449.167,387.167 511.5,325.5 Z"/></g>
<g><path style="opacity:0.022" fill="#43443f" d="M 128.5,328.5 C 128.5,330.167 128.5,331.833 128.5,333.5C 85.5,376.167 42.5,418.833 -0.5,461.5C -0.5,459.833 -0.5,458.167 -0.5,456.5C 42.5,413.833 85.5,371.167 128.5,328.5 Z"/></g>
<g><path style="opacity:0.022" fill="#43443f" d="M 266.5,330.5 C 266.5,332.167 266.5,333.833 266.5,335.5C 259.167,342.5 251.833,349.5 244.5,356.5C 244.5,354.833 244.5,353.167 244.5,351.5C 251.833,344.5 259.167,337.5 266.5,330.5 Z"/></g>
<g><path style="opacity:1" fill="#47af2b" d="M 382.5,320.5 C 382.5,324.833 382.5,329.167 382.5,333.5C 382.5,335.167 382.5,336.833 382.5,338.5C 382.5,343.5 382.5,348.5 382.5,353.5C 382.5,355.167 382.5,356.833 382.5,358.5C 382.5,363.5 382.5,368.5 382.5,373.5C 382.5,375.167 382.5,376.833 382.5,378.5C 382.5,383.5 382.5,388.5 382.5,393.5C 382.5,395.167 382.5,396.833 382.5,398.5C 382.877,404.323 382.21,409.989 380.5,415.5C 379.833,415.5 379.5,415.833 379.5,416.5C 378.833,416.5 378.5,416.833 378.5,417.5C 377.167,419.5 375.5,421.167 373.5,422.5C 372.833,422.5 372.5,422.833 372.5,423.5C 371.833,423.5 371.5,423.833 371.5,424.5C 365.969,426.125 360.303,426.791 354.5,426.5C 352.833,426.5 351.167,426.5 349.5,426.5C 344.5,426.5 339.5,426.5 334.5,426.5C 332.833,426.5 331.167,426.5 329.5,426.5C 324.5,426.5 319.5,426.5 314.5,426.5C 312.833,426.5 311.167,426.5 309.5,426.5C 304.5,426.5 299.5,426.5 294.5,426.5C 292.833,426.5 291.167,426.5 289.5,426.5C 285.167,426.5 280.833,426.5 276.5,426.5C 276.369,425.761 276.536,425.094 277,424.5C 311.75,389.248 346.917,354.582 382.5,320.5 Z"/></g>
<g><path style="opacity:0.022" fill="#43443f" d="M 511.5,345.5 C 511.5,347.167 511.5,348.833 511.5,350.5C 457.5,403.833 403.833,457.5 350.5,511.5C 348.833,511.5 347.167,511.5 345.5,511.5C 400.5,455.833 455.833,400.5 511.5,345.5 Z"/></g>
<g><path style="opacity:0.022" fill="#43443f" d="M 128.5,348.5 C 128.5,350.167 128.5,351.833 128.5,353.5C 85.5,396.167 42.5,438.833 -0.5,481.5C -0.5,479.833 -0.5,478.167 -0.5,476.5C 42.5,433.833 85.5,391.167 128.5,348.5 Z"/></g>
<g><path style="opacity:0.022" fill="#43443f" d="M 266.5,350.5 C 266.5,351.833 266.5,353.167 266.5,354.5C 266.5,354.833 266.5,355.167 266.5,355.5C 261.5,359.833 256.833,364.5 252.5,369.5C 251.29,369.068 250.29,368.401 249.5,367.5C 254.833,361.5 260.5,355.833 266.5,350.5 Z"/></g>
<g><path style="opacity:0.022" fill="#43443f" d="M 511.5,365.5 C 511.5,367.167 511.5,368.833 511.5,370.5C 464.167,417.167 417.167,464.167 370.5,511.5C 368.833,511.5 367.167,511.5 365.5,511.5C 413.833,462.5 462.5,413.833 511.5,365.5 Z"/></g>
<g><path style="opacity:0.022" fill="#43443f" d="M 128.5,368.5 C 128.5,370.167 128.5,371.833 128.5,373.5C 85.5,416.167 42.5,458.833 -0.5,501.5C -0.5,499.833 -0.5,498.167 -0.5,496.5C 42.5,453.833 85.5,411.167 128.5,368.5 Z"/></g>
<g><path style="opacity:0.022" fill="#43443f" d="M 511.5,385.5 C 511.5,387.167 511.5,388.833 511.5,390.5C 470.833,430.5 430.5,470.833 390.5,511.5C 388.833,511.5 387.167,511.5 385.5,511.5C 427.167,469.167 469.167,427.167 511.5,385.5 Z"/></g>
<g><path style="opacity:0.022" fill="#43443f" d="M 128.5,388.5 C 128.5,390.167 128.5,391.833 128.5,393.5C 88.8333,432.5 49.5,471.833 10.5,511.5C 8.83333,511.5 7.16667,511.5 5.5,511.5C 46.1667,470.167 87.1667,429.167 128.5,388.5 Z"/></g>
<g><path style="opacity:0.022" fill="#43443f" d="M 511.5,405.5 C 511.5,407.167 511.5,408.833 511.5,410.5C 477.5,443.833 443.833,477.5 410.5,511.5C 408.833,511.5 407.167,511.5 405.5,511.5C 440.5,475.833 475.833,440.5 511.5,405.5 Z"/></g>
<g><path style="opacity:0.022" fill="#444440" d="M 128.5,408.5 C 129.234,409.708 129.567,411.041 129.5,412.5C 96.1667,445.167 63.1667,478.167 30.5,511.5C 28.8333,511.5 27.1667,511.5 25.5,511.5C 59.5,476.833 93.8333,442.5 128.5,408.5 Z"/></g>
<g><path style="opacity:0.022" fill="#43443f" d="M 135.5,421.5 C 136.71,421.932 137.71,422.599 138.5,423.5C 108.833,452.5 79.5,481.833 50.5,511.5C 48.8333,511.5 47.1667,511.5 45.5,511.5C 75.1667,481.167 105.167,451.167 135.5,421.5 Z"/></g>
<g><path style="opacity:0.022" fill="#43443f" d="M 511.5,425.5 C 511.5,427.167 511.5,428.833 511.5,430.5C 484.167,457.167 457.167,484.167 430.5,511.5C 428.833,511.5 427.167,511.5 425.5,511.5C 453.833,482.5 482.5,453.833 511.5,425.5 Z"/></g>
<g><path style="opacity:0.022" fill="#43443f" d="M 149.5,426.5 C 151.167,426.5 152.833,426.5 154.5,426.5C 126.5,454.833 98.5,483.167 70.5,511.5C 68.8333,511.5 67.1667,511.5 65.5,511.5C 93.5,483.167 121.5,454.833 149.5,426.5 Z"/></g>
<g><path style="opacity:0.022" fill="#43443f" d="M 169.5,426.5 C 171.167,426.5 172.833,426.5 174.5,426.5C 146.5,454.833 118.5,483.167 90.5,511.5C 88.8333,511.5 87.1667,511.5 85.5,511.5C 113.5,483.167 141.5,454.833 169.5,426.5 Z"/></g>
<g><path style="opacity:0.022" fill="#43443f" d="M 189.5,426.5 C 191.167,426.5 192.833,426.5 194.5,426.5C 166.5,454.833 138.5,483.167 110.5,511.5C 108.833,511.5 107.167,511.5 105.5,511.5C 133.5,483.167 161.5,454.833 189.5,426.5 Z"/></g>
<g><path style="opacity:0.022" fill="#43443f" d="M 209.5,426.5 C 211.167,426.5 212.833,426.5 214.5,426.5C 186.5,454.833 158.5,483.167 130.5,511.5C 128.833,511.5 127.167,511.5 125.5,511.5C 153.5,483.167 181.5,454.833 209.5,426.5 Z"/></g>
<g><path style="opacity:0.022" fill="#43443f" d="M 229.5,426.5 C 231.167,426.5 232.833,426.5 234.5,426.5C 206.5,454.833 178.5,483.167 150.5,511.5C 148.833,511.5 147.167,511.5 145.5,511.5C 173.5,483.167 201.5,454.833 229.5,426.5 Z"/></g>
<g><path style="opacity:0.022" fill="#43443f" d="M 249.5,426.5 C 251.167,426.5 252.833,426.5 254.5,426.5C 226.5,454.833 198.5,483.167 170.5,511.5C 168.833,511.5 167.167,511.5 165.5,511.5C 193.5,483.167 221.5,454.833 249.5,426.5 Z"/></g>
<g><path style="opacity:0.022" fill="#43443f" d="M 269.5,426.5 C 271.167,426.5 272.833,426.5 274.5,426.5C 246.5,454.833 218.5,483.167 190.5,511.5C 188.833,511.5 187.167,511.5 185.5,511.5C 213.5,483.167 241.5,454.833 269.5,426.5 Z"/></g>
<g><path style="opacity:0.022" fill="#43443f" d="M 289.5,426.5 C 291.167,426.5 292.833,426.5 294.5,426.5C 266.5,454.833 238.5,483.167 210.5,511.5C 208.833,511.5 207.167,511.5 205.5,511.5C 233.5,483.167 261.5,454.833 289.5,426.5 Z"/></g>
<g><path style="opacity:0.022" fill="#43443f" d="M 309.5,426.5 C 311.167,426.5 312.833,426.5 314.5,426.5C 286.5,454.833 258.5,483.167 230.5,511.5C 228.833,511.5 227.167,511.5 225.5,511.5C 253.5,483.167 281.5,454.833 309.5,426.5 Z"/></g>
<g><path style="opacity:0.022" fill="#43443f" d="M 329.5,426.5 C 331.167,426.5 332.833,426.5 334.5,426.5C 306.5,454.833 278.5,483.167 250.5,511.5C 248.833,511.5 247.167,511.5 245.5,511.5C 273.5,483.167 301.5,454.833 329.5,426.5 Z"/></g>
<g><path style="opacity:0.022" fill="#43443f" d="M 349.5,426.5 C 351.167,426.5 352.833,426.5 354.5,426.5C 326.5,454.833 298.5,483.167 270.5,511.5C 268.833,511.5 267.167,511.5 265.5,511.5C 293.5,483.167 321.5,454.833 349.5,426.5 Z"/></g>
<g><path style="opacity:0.022" fill="#43443f" d="M 511.5,445.5 C 511.5,447.167 511.5,448.833 511.5,450.5C 490.833,470.5 470.5,490.833 450.5,511.5C 448.833,511.5 447.167,511.5 445.5,511.5C 467.167,489.167 489.167,467.167 511.5,445.5 Z"/></g>
<g><path style="opacity:0.022" fill="#43443f" d="M 511.5,465.5 C 511.5,467.167 511.5,468.833 511.5,470.5C 497.5,483.833 483.833,497.5 470.5,511.5C 468.833,511.5 467.167,511.5 465.5,511.5C 480.5,495.833 495.833,480.5 511.5,465.5 Z"/></g>
<g><path style="opacity:0.022" fill="#43443f" d="M 511.5,485.5 C 511.5,487.167 511.5,488.833 511.5,490.5C 504.167,497.167 497.167,504.167 490.5,511.5C 488.833,511.5 487.167,511.5 485.5,511.5C 493.833,502.5 502.5,493.833 511.5,485.5 Z"/></g>
<g><path style="opacity:0.022" fill="#43443f" d="M 511.5,505.5 C 511.5,507.167 511.5,508.833 511.5,510.5C 510.833,510.5 510.5,510.833 510.5,511.5C 508.833,511.5 507.167,511.5 505.5,511.5C 507.167,509.167 509.167,507.167 511.5,505.5 Z"/></g>
</svg>
